<?xml version="1.0" encoding="utf-8"?>
<!-- Generator: Adobe Illustrator 20.0.0, SVG Export Plug-In . SVG Version: 6.00 Build 0)  -->
<svg version="1.1" id="Layer_1" xmlns="http://www.w3.org/2000/svg" xmlns:xlink="http://www.w3.org/1999/xlink" x="0px" y="0px"
	 viewBox="0 0 41.2 31.8" style="enable-background:new 0 0 41.2 31.8;" xml:space="preserve">
<style type="text/css">
	.st0{fill-rule:evenodd;clip-rule:evenodd;fill:#E72425;}
	.st1{fill:#FFFFFF;}
</style>
<path class="st0" d="M35.2,31.8H6c-3.3,0-6-2.7-6-6V6c0-3.3,2.7-6,6-6h29.2c3.3,0,6,2.7,6,6v19.8C41.2,29.1,38.5,31.8,35.2,31.8z"/>
<g>
	<g>
		<path class="st1" d="M20.6,5C6.1,5,8.1,13.8,8.1,13.8h6.6c0-4.4,4.2-4.3,5.9-4.3c1.7,0,5.9-0.1,5.9,4.3h6.6C33.1,13.8,35,5,20.6,5
			z"/>
		<rect x="8" y="14.5" class="st1" width="6.8" height="1.4"/>
		<rect x="26.4" y="14.5" class="st1" width="6.8" height="1.4"/>
	</g>
	<path class="st1" d="M25.4,16.1c-0.1-3.1-0.6-5.5-4.9-5.5c-4.2,0-4.8,2.3-4.9,5.4c0,0.5,0,1,0,1.5c0,3.8,2.2,6.9,4.9,6.9
		c2.7,0,4.9-3.1,4.9-6.9C25.5,17,25.5,16.5,25.4,16.1z M20.6,24.3c-1.8,0-3.3-1.5-3.3-3.3c0-1.8,1.5-3.3,3.3-3.3
		c1.8,0,3.3,1.5,3.3,3.3C23.9,22.8,22.4,24.3,20.6,24.3z"/>
	<path class="st1" d="M25.4,16.1c-1.5-0.7-3.2-1.1-5-1.1c-1.7,0-3.3,0.3-4.8,1c-4.3,1.8-7.3,6-7.4,10.8h24.4
		C32.5,22,29.6,17.9,25.4,16.1z M20.6,17.6c1.8,0,3.3,1.5,3.3,3.3c0,1.8-1.5,3.3-3.3,3.3c-1.8,0-3.3-1.5-3.3-3.3
		C17.3,19.1,18.8,17.6,20.6,17.6z"/>
</g>
</svg>
